M48
; DRILL file {KiCad 8.0.5-unknown-202409211835~1ac1a5bb3b~ubuntu24.04.1} date 2024-09-23T17:17:30-0400
; FORMAT={-:-/ absolute / inch / decimal}
; #@! TF.CreationDate,2024-09-23T17:17:30-04:00
; #@! TF.GenerationSoftware,Kicad,Pcbnew,8.0.5-unknown-202409211835~1ac1a5bb3b~ubuntu24.04.1
; #@! TF.FileFunction,Plated,1,2,PTH
FMAT,2
INCH
; #@! TA.AperFunction,Plated,PTH,ComponentDrill
T1C0.0300
; #@! TA.AperFunction,Plated,PTH,ComponentDrill
T2C0.0315
; #@! TA.AperFunction,Plated,PTH,ComponentDrill
T3C0.0354
; #@! TA.AperFunction,Plated,PTH,ComponentDrill
T4C0.0394
%
G90
G05
T1
X4.1417Y-2.4882
X4.2008Y-2.6063
X4.2402Y-2.4882
X4.3386Y-2.4882
X4.3976Y-2.6063
X4.437Y-2.4882
X5.2913Y-2.5551
X5.2913Y-3.7205
X5.4386Y-4.1244
X5.4386Y-5.2244
X5.5386Y-4.1244
X5.5386Y-5.2244
X5.6386Y-4.1244
X5.6386Y-5.2244
X5.7386Y-4.1244
X5.7386Y-5.2244
X5.8386Y-4.1244
X5.8386Y-5.2244
X5.9386Y-4.1244
X5.9386Y-5.2244
X6.0386Y-4.1244
X6.0386Y-5.2244
X6.1386Y-4.1244
X6.1386Y-5.2244
X6.2386Y-4.1244
X6.2386Y-5.2244
X6.3386Y-4.1244
X6.3386Y-5.2244
X6.4386Y-4.1244
X6.4386Y-5.2244
X6.5386Y-4.1244
X6.5386Y-5.2244
X6.6386Y-4.1244
X6.6386Y-5.2244
X6.6535Y-2.5551
X6.6535Y-3.7205
X6.7386Y-4.1244
X6.7386Y-5.2244
X6.8386Y-4.1244
X6.8386Y-5.2244
T2
X5.7559Y-5.6772
X5.7559Y-6.0772
T3
X5.6181Y-6.4252
X5.6181Y-6.6614
X5.815Y-6.4252
X5.815Y-6.6614
T4
X4.063Y-6.4205
X4.063Y-6.5205
X4.063Y-6.6205
X4.063Y-6.7205
X4.8307Y-6.8287
X4.9291Y-6.8287
X5.0276Y-6.8287
M30
