%TF.GenerationSoftware,KiCad,Pcbnew,8.0.5-unknown-202409211835~1ac1a5bb3b~ubuntu24.04.1*%
%TF.CreationDate,2024-09-23T17:17:13-04:00*%
%TF.ProjectId,teaPCB,74656150-4342-42e6-9b69-6361645f7063,rev?*%
%TF.SameCoordinates,Original*%
%TF.FileFunction,Soldermask,Bot*%
%TF.FilePolarity,Negative*%
%FSLAX46Y46*%
G04 Gerber Fmt 4.6, Leading zero omitted, Abs format (unit mm)*
G04 Created by KiCad (PCBNEW 8.0.5-unknown-202409211835~1ac1a5bb3b~ubuntu24.04.1) date 2024-09-23 17:17:13*
%MOMM*%
%LPD*%
G01*
G04 APERTURE LIST*
%ADD10C,1.524000*%
%ADD11R,1.800000X1.800000*%
%ADD12C,1.800000*%
%ADD13C,1.600000*%
%ADD14O,1.600000X1.600000*%
%ADD15O,2.000000X1.600000*%
G04 APERTURE END LIST*
D10*
%TO.C,REF\u002A\u002A*%
X134400000Y-94500000D03*
X134400000Y-64900000D03*
X169000000Y-64900000D03*
X169000000Y-94500000D03*
%TD*%
%TO.C,U1*%
X138140000Y-132700000D03*
X140680000Y-132700000D03*
X143220000Y-132700000D03*
X145760000Y-132700000D03*
X148300000Y-132700000D03*
X150840000Y-132700000D03*
X153380000Y-132700000D03*
X155920000Y-132700000D03*
X158460000Y-132700000D03*
X161000000Y-132700000D03*
X163540000Y-132700000D03*
X166080000Y-132700000D03*
X168620000Y-132700000D03*
X171160000Y-132700000D03*
X173700000Y-132700000D03*
X173700000Y-104760000D03*
X171160000Y-104760000D03*
X168620000Y-104760000D03*
X166080000Y-104760000D03*
X163540000Y-104760000D03*
X161000000Y-104760000D03*
X158460000Y-104760000D03*
X155920000Y-104760000D03*
X153380000Y-104760000D03*
X150840000Y-104760000D03*
X148300000Y-104760000D03*
X145760000Y-104760000D03*
X143220000Y-104760000D03*
X140680000Y-104760000D03*
X138140000Y-104760000D03*
%TD*%
D11*
%TO.C,SW1*%
X147700000Y-169200000D03*
D12*
X142700000Y-169200000D03*
X147700000Y-163200000D03*
X142700000Y-163200000D03*
%TD*%
D11*
%TO.C,RV1*%
X122700000Y-173450000D03*
D12*
X125200000Y-173450000D03*
X127700000Y-173450000D03*
%TD*%
D13*
%TO.C,R1*%
X146200000Y-144200000D03*
D14*
X146200000Y-154360000D03*
%TD*%
D10*
%TO.C,M2*%
X105200000Y-63200000D03*
X107700000Y-63200000D03*
X110200000Y-63200000D03*
X112700000Y-63200000D03*
X111700000Y-66200000D03*
X106700000Y-66200000D03*
%TD*%
D15*
%TO.C,Brd1*%
X103200000Y-170700000D03*
X103200000Y-168160000D03*
X103200000Y-163080000D03*
X103200000Y-165620000D03*
%TD*%
M02*
