%TF.GenerationSoftware,KiCad,Pcbnew,8.0.5-unknown-202409211835~1ac1a5bb3b~ubuntu24.04.1*%
%TF.CreationDate,2024-09-23T17:16:53-04:00*%
%TF.ProjectId,teaPCB,74656150-4342-42e6-9b69-6361645f7063,rev?*%
%TF.SameCoordinates,Original*%
%TF.FileFunction,Copper,L2,Bot*%
%TF.FilePolarity,Positive*%
%FSLAX46Y46*%
G04 Gerber Fmt 4.6, Leading zero omitted, Abs format (unit mm)*
G04 Created by KiCad (PCBNEW 8.0.5-unknown-202409211835~1ac1a5bb3b~ubuntu24.04.1) date 2024-09-23 17:16:53*
%MOMM*%
%LPD*%
G01*
G04 APERTURE LIST*
%TA.AperFunction,ComponentPad*%
%ADD10C,1.524000*%
%TD*%
%TA.AperFunction,ComponentPad*%
%ADD11R,1.800000X1.800000*%
%TD*%
%TA.AperFunction,ComponentPad*%
%ADD12C,1.800000*%
%TD*%
%TA.AperFunction,ComponentPad*%
%ADD13C,1.600000*%
%TD*%
%TA.AperFunction,ComponentPad*%
%ADD14O,1.600000X1.600000*%
%TD*%
%TA.AperFunction,ComponentPad*%
%ADD15O,2.000000X1.600000*%
%TD*%
%TA.AperFunction,Conductor*%
%ADD16C,0.200000*%
%TD*%
G04 APERTURE END LIST*
D10*
%TO.P,REF\u002A\u002A,1*%
%TO.N,N/C*%
X134400000Y-94500000D03*
%TO.P,REF\u002A\u002A,2*%
X134400000Y-64900000D03*
%TO.P,REF\u002A\u002A,3*%
X169000000Y-64900000D03*
%TO.P,REF\u002A\u002A,4*%
X169000000Y-94500000D03*
%TD*%
%TO.P,U1,1,A0(ADC0)*%
%TO.N,Net-(U1-A0(ADC0))*%
X138140000Y-132700000D03*
%TO.P,U1,2,RSV*%
%TO.N,unconnected-(U1-RSV-Pad2)*%
X140680000Y-132700000D03*
%TO.P,U1,3,RSV*%
%TO.N,unconnected-(U1-RSV-Pad3)*%
X143220000Y-132700000D03*
%TO.P,U1,4,SD3(GPIO10)*%
%TO.N,unconnected-(U1-SD3(GPIO10)-Pad4)*%
X145760000Y-132700000D03*
%TO.P,U1,5,SD2(GPIO9)*%
%TO.N,unconnected-(U1-SD2(GPIO9)-Pad5)*%
X148300000Y-132700000D03*
%TO.P,U1,6,SD1(MOSI)*%
%TO.N,unconnected-(U1-SD1(MOSI)-Pad6)*%
X150840000Y-132700000D03*
%TO.P,U1,7,CMD(CS)*%
%TO.N,unconnected-(U1-CMD(CS)-Pad7)*%
X153380000Y-132700000D03*
%TO.P,U1,8,SDO(MISO)*%
%TO.N,unconnected-(U1-SDO(MISO)-Pad8)*%
X155920000Y-132700000D03*
%TO.P,U1,9,CLK(SCLK)*%
%TO.N,unconnected-(U1-CLK(SCLK)-Pad9)*%
X158460000Y-132700000D03*
%TO.P,U1,10,GND*%
%TO.N,unconnected-(U1-GND-Pad10)*%
X161000000Y-132700000D03*
%TO.P,U1,11,3.3V*%
%TO.N,unconnected-(U1-3.3V-Pad11)*%
X163540000Y-132700000D03*
%TO.P,U1,12,EN*%
%TO.N,unconnected-(U1-EN-Pad12)*%
X166080000Y-132700000D03*
%TO.P,U1,13,RST*%
%TO.N,unconnected-(U1-RST-Pad13)*%
X168620000Y-132700000D03*
%TO.P,U1,14,GND*%
%TO.N,GND*%
X171160000Y-132700000D03*
%TO.P,U1,15,VIN*%
%TO.N,+5V*%
X173700000Y-132700000D03*
%TO.P,U1,16,3.3V*%
%TO.N,unconnected-(U1-3.3V-Pad16)*%
X173700000Y-104760000D03*
%TO.P,U1,17,GND*%
%TO.N,unconnected-(U1-GND-Pad17)*%
X171160000Y-104760000D03*
%TO.P,U1,18,TX(GPIO1)*%
%TO.N,unconnected-(U1-TX(GPIO1)-Pad18)*%
X168620000Y-104760000D03*
%TO.P,U1,19,RX(DPIO3)*%
%TO.N,unconnected-(U1-RX(DPIO3)-Pad19)*%
X166080000Y-104760000D03*
%TO.P,U1,20,D8(GPIO15)*%
%TO.N,Net-(M2-IN4)*%
X163540000Y-104760000D03*
%TO.P,U1,21,D7(GPIO13)*%
%TO.N,Net-(M2-IN3)*%
X161000000Y-104760000D03*
%TO.P,U1,22,D6(GPIO12)*%
%TO.N,Net-(M2-IN2)*%
X158460000Y-104760000D03*
%TO.P,U1,23,D5(GPIO14)*%
%TO.N,Net-(M2-IN1)*%
X155920000Y-104760000D03*
%TO.P,U1,24,GND*%
%TO.N,unconnected-(U1-GND-Pad24)*%
X153380000Y-104760000D03*
%TO.P,U1,25,3.3V*%
%TO.N,unconnected-(U1-3.3V-Pad25)*%
X150840000Y-104760000D03*
%TO.P,U1,26,D4(GPIO2)*%
%TO.N,unconnected-(U1-D4(GPIO2)-Pad26)*%
X148300000Y-104760000D03*
%TO.P,U1,27,D3(GPIO0)*%
%TO.N,Net-(U1-D3(GPIO0))*%
X145760000Y-104760000D03*
%TO.P,U1,28,D2(GPIO4)*%
%TO.N,Net-(Brd1-SDA)*%
X143220000Y-104760000D03*
%TO.P,U1,29,D1(GPIO5)*%
%TO.N,Net-(Brd1-SCL)*%
X140680000Y-104760000D03*
%TO.P,U1,30,D0(GPIO16)*%
%TO.N,unconnected-(U1-D0(GPIO16)-Pad30)*%
X138140000Y-104760000D03*
%TD*%
D11*
%TO.P,SW1,1,1*%
%TO.N,Net-(R1-Pad2)*%
X147700000Y-169200000D03*
D12*
%TO.P,SW1,2,2*%
%TO.N,+5V*%
X142700000Y-169200000D03*
%TO.P,SW1,3*%
%TO.N,N/C*%
X147700000Y-163200000D03*
%TO.P,SW1,4*%
X142700000Y-163200000D03*
%TD*%
D11*
%TO.P,RV1,1,1*%
%TO.N,+5V*%
X122700000Y-173450000D03*
D12*
%TO.P,RV1,2,2*%
%TO.N,Net-(U1-A0(ADC0))*%
X125200000Y-173450000D03*
%TO.P,RV1,3,3*%
%TO.N,GND*%
X127700000Y-173450000D03*
%TD*%
D13*
%TO.P,R1,1*%
%TO.N,Net-(U1-D3(GPIO0))*%
X146200000Y-144200000D03*
D14*
%TO.P,R1,2*%
%TO.N,Net-(R1-Pad2)*%
X146200000Y-154360000D03*
%TD*%
D10*
%TO.P,M2,1,IN1*%
%TO.N,Net-(M2-IN1)*%
X105200000Y-63200000D03*
%TO.P,M2,2,IN2*%
%TO.N,Net-(M2-IN2)*%
X107700000Y-63200000D03*
%TO.P,M2,3,IN3*%
%TO.N,Net-(M2-IN3)*%
X110200000Y-63200000D03*
%TO.P,M2,4,IN4*%
%TO.N,Net-(M2-IN4)*%
X112700000Y-63200000D03*
%TO.P,M2,5,Vcc*%
%TO.N,+5V*%
X111700000Y-66200000D03*
%TO.P,M2,6,GND*%
%TO.N,GND*%
X106700000Y-66200000D03*
%TD*%
D15*
%TO.P,Brd1,4,SDA*%
%TO.N,Net-(Brd1-SDA)*%
X103200000Y-170700000D03*
%TO.P,Brd1,3,SCL*%
%TO.N,Net-(Brd1-SCL)*%
X103200000Y-168160000D03*
%TO.P,Brd1,1,GND*%
%TO.N,GND*%
X103200000Y-163080000D03*
%TO.P,Brd1,2,VCC*%
%TO.N,+5V*%
X103200000Y-165620000D03*
%TD*%
D16*
%TO.N,+5V*%
X111700000Y-66200000D02*
X113781895Y-66200000D01*
X113781895Y-66200000D02*
X151902000Y-104320105D01*
X151902000Y-104320105D02*
X151902000Y-110902000D01*
X151902000Y-110902000D02*
X173700000Y-132700000D01*
%TO.N,GND*%
X106700000Y-66200000D02*
X106700000Y-71818105D01*
X106700000Y-71818105D02*
X139202000Y-104320105D01*
X139202000Y-104320105D02*
X139202000Y-106702000D01*
X139202000Y-106702000D02*
X163700000Y-131200000D01*
X163700000Y-131200000D02*
X169660000Y-131200000D01*
X169660000Y-131200000D02*
X171160000Y-132700000D01*
X103200000Y-163080000D02*
X114770000Y-174650000D01*
X114770000Y-174650000D02*
X126500000Y-174650000D01*
X126500000Y-174650000D02*
X127700000Y-173450000D01*
X167450000Y-173450000D02*
X170700000Y-170200000D01*
X127700000Y-173450000D02*
X167450000Y-173450000D01*
X170700000Y-170200000D02*
X170700000Y-169200000D01*
X170700000Y-169200000D02*
X171160000Y-168740000D01*
X171160000Y-168740000D02*
X171160000Y-132700000D01*
%TO.N,Net-(U1-A0(ADC0))*%
X125200000Y-173450000D02*
X125200000Y-145640000D01*
X125200000Y-145640000D02*
X138140000Y-132700000D01*
%TD*%
M02*
